#!OML:ASF F:\VICON\USERDATA\INSTALL\rory3\rory3.ASF
:FULLY-SPECIFIED
:DEGREES
689
root -0.266078 17.7896 1.39126 7.08785 3.27389 1.13959
lowerback 8.69706 1.19536 4.66368
upperback -1.48508 2.04277 -1.05186
thorax -6.24782 0.814805 -4.0145
lowerneck -23.115 -14.0064 -11.1343
upperneck -2.47693 -16.6639 17.1388
head 5.29179 -7.1686 5.10036
rclavicle 8.10048e-015 1.66979e-014
rhumerus 56.2857 -26.5387 -8.61611
rradius 44.9186
rwrist 43.7313
rhand -67.4451 -10.5888
rfingers 7.12502
rthumb -39.2064 -36.0494
lclavicle 8.10048e-015 1.66979e-014
lhumerus -45.1416 16.8738 59.6822
lradius 32.3132
lwrist -8.04359
lhand -13.0911 24.667
lfingers 7.12502
lthumb 13.0054 54.2416
rfemur -18.2919 -5.31682 16.9958
rtibia 34.7929
rfoot -19.9594 -1.97711
rtoes 9.60448
lfemur -6.54527 -2.28457 -9.71778
ltibia 15.015
lfoot -8.37183 8.58738
ltoes -27.8474
690
root -0.281296 17.8037 1.39843 7.20049 2.96006 1.20441
lowerback 8.69651 1.25301 4.90297
upperback -1.53023 2.15254 -0.963166
thorax -6.27991 0.859826 -4.07158
lowerneck -23.4729 -14.0142 -10.9248
upperneck -2.30298 -16.6842 16.83
head 5.34502 -7.17289 4.95515
rclavicle -5.86415e-015 7.55382e-015
rhumerus 57.5732 -27.8266 -10.4682
rradius 43.6741
rwrist 42.5396
rhand -67.1244 -11.6417
rfingers 7.12502
rthumb -38.9042 -37.1891
lclavicle -5.86415e-015 7.55382e-015
lhumerus -45.0556 17.1784 59.7474
lradius 32.0901
lwrist -8.24516
lhand -13.0797 24.7661
lfingers 7.12502
lthumb 13.0164 54.34
rfemur -18.3463 -5.1995 16.9516
rtibia 34.6565
rfoot -19.8702 -1.75288
rtoes 9.91382
lfemur -6.4454 -2.30313 -9.74132
ltibia 14.8108
lfoot -8.38597 8.78088
ltoes -26.5369
691
root -0.294395 17.8144 1.40342 7.3801 2.69446 1.23339
lowerback 8.61809 1.2814 5.20081
upperback -1.61076 2.22605 -0.882992
thorax -6.30641 0.884065 -4.16368
lowerneck -23.5401 -13.9458 -10.6978
upperneck -2.34839 -16.6161 16.5935
head 5.28541 -7.1539 4.86052
rclavicle 2.62893e-014 5.96354e-015
rhumerus 58.9872 -28.9717 -12.5162
rradius 42.5048
rwrist 41.2627
rhand -66.7266 -12.8511
rfingers 7.12502
rthumb -38.529 -38.5044
lclavicle 2.62893e-014 5.96354e-015
lhumerus -45.0691 17.3843 59.8097
lradius 32.0465
lwrist -8.15488
lhand -13.1442 24.6699
lfingers 7.12502
lthumb 12.9541 54.2477
rfemur -18.492 -5.2183 17.0044
rtibia 34.5265
rfoot -19.6843 -1.7315
rtoes 8.28231
lfemur -6.42623 -2.27469 -9.73858
ltibia 14.6077
lfoot -8.37602 8.9779
ltoes -25.8545
692
root -0.305034 17.8192 1.40469 7.57843 2.44973 1.31758
lowerback 8.50299 1.30069 5.46607
upperback -1.65027 2.27938 -0.816447
thorax -6.27073 0.902197 -4.24644
lowerneck -23.4301 -13.845 -10.6578
upperneck -2.62534 -16.472 16.6601
head 5.17034 -7.09643 4.91031
rclavicle 1.799e-014 9.54166e-015
rhumerus 60.4492 -30.0872 -14.6745
rradius 41.4633
rwrist 39.728
rhand -66.1923 -13.0741
rfingers 7.12502
rthumb -38.0246 -38.8666
lclavicle 1.799e-014 9.54166e-015
lhumerus -44.9605 17.563 59.9936
lradius 32.0395
lwrist -7.97524
lhand -13.2693 24.7334
lfingers 7.12502
lthumb 12.8336 54.3188
rfemur -18.7064 -5.35138 16.9872
rtibia 34.441
rfoot -19.4186 -1.70782
rtoes 5.78089
lfemur -6.44444 -2.32464 -9.83012
ltibia 14.3959
lfoot -8.2637 9.2583
ltoes -25.4034
693
root -0.316873 17.8203 1.4042 7.67226 2.26135 1.36246
lowerback 8.49959 1.30155 5.70511
upperback -1.60354 2.31347 -0.674422
thorax -6.21297 0.915836 -4.23426
lowerneck -23.7415 -13.8295 -10.7162
upperneck -2.59592 -16.4127 16.7204
head 5.2273 -7.04726 4.9358
rclavicle -8.89561e-015 7.95139e-016
rhumerus 61.9073 -31.2304 -16.6823
rradius 40.507
rwrist 37.5423
rhand -65.5559 -11.5971
rfingers 7.12502
rthumb -37.4233 -37.5509
lclavicle -8.89561e-015 7.95139e-016
lhumerus -44.7345 17.8079 60.3328
lradius 32.0339
lwrist -7.97323
lhand -13.4186 25.0242
lfingers 7.12502
lthumb 12.6897 54.6186
rfemur -18.8393 -5.41376 16.9799
rtibia 34.4099
rfoot -19.2731 -1.62761
rtoes 5.05908
lfemur -6.40697 -2.38721 -9.87577
ltibia 14.2194
lfoot -8.14231 9.54259
ltoes -25.2733
694
root -0.331371 17.8178 1.40199 7.69278 2.13337 1.36954
lowerback 8.5791 1.31006 5.93096
upperback -1.53783 2.36168 -0.518989
thorax -6.18168 0.936664 -4.20506
lowerneck -24.0556 -13.8541 -10.5547
upperneck -2.57838 -16.4353 16.4771
head 5.23682 -7.05735 4.82289
rclavicle -9.93923e-017 -2.38542e-015
rhumerus 63.2491 -32.2985 -18.6163
rradius 39.6613
rwrist 34.9734
rhand -65.0484 -9.98365
rfingers 7.12502
rthumb -36.9434 -36.0627
lclavicle -9.93923e-017 -2.38542e-015
lhumerus -44.5362 17.8936 60.7551
lradius 32.1958
lwrist -8.00134
lhand -13.2519 25.0975
lfingers 7.12502
lthumb 12.8504 54.6819
rfemur -18.91 -5.49306 17.0208
rtibia 34.4076
rfoot -19.1418 -1.51748
rtoes 5.05838
lfemur -6.32902 -2.51698 -9.86195
ltibia 14.1228
lfoot -8.13106 9.84098
ltoes -25.4
695
root -0.345092 17.8157 1.39967 7.8081 2.04125 1.39377
lowerback 8.57585 1.31405 6.08992
upperback -1.55496 2.39622 -0.329333
thorax -6.19658 0.950439 -4.09899
lowerneck -24.0662 -13.8473 -10.479
upperneck -2.70322 -16.4099 16.2841
head 5.16622 -7.0617 4.76
rclavicle 1.02374e-014 -3.97569e-015
rhumerus 64.562 -33.1134 -20.616
rradius 38.9998
rwrist 32.6573
rhand -64.6432 -10.6703
rfingers 7.12502
rthumb -36.56 -36.8472
lclavicle 1.02374e-014 -3.97569e-015
lhumerus -44.4254 17.8336 61.26
lradius 32.4155
lwrist -7.89406
lhand -13.1737 25.1588
lfingers 7.12502
lthumb 12.9257 54.7385
rfemur -19.1017 -5.77165 17.0919
rtibia 34.4118
rfoot -18.9742 -1.32594
rtoes 4.2633
lfemur -6.38963 -2.57997 -9.86137
ltibia 14.0845
lfoot -8.12588 10.0836
ltoes -25.1713
696
root -0.356137 17.8145 1.39655 7.92556 1.99554 1.44757
lowerback 8.62705 1.29555 6.23627
upperback -1.60714 2.40468 -0.141703
thorax -6.28334 0.948308 -3.98758
lowerneck -24.1304 -13.8374 -10.5718
upperneck -2.72196 -16.3658 16.3282
head 5.17603 -7.03492 4.79269
rclavicle -1.26228e-014 -3.33958e-014
rhumerus 65.9048 -33.8424 -22.7177
rradius 38.5286
rwrist 30.4374
rhand -63.9358 -11.2882
rfingers 7.12502
rthumb -35.8902 -37.6316
lclavicle -1.26228e-014 -3.33958e-014
lhumerus -44.2905 17.6037 61.8738
lradius 32.6301
lwrist -7.64781
lhand -13.2235 25.4951
lfingers 7.12502
lthumb 12.8778 55.0778
rfemur -19.2838 -6.10484 17.1489
rtibia 34.4037
rfoot -18.8117 -1.25824
rtoes 3.03593
lfemur -6.5286 -2.55302 -9.89807
ltibia 14.1234
lfoot -8.05381 10.1382
ltoes -25.3591
697
root -0.36725 17.8146 1.3937 7.93682 1.96147 1.52404
lowerback 8.75671 1.28514 6.35737
upperback -1.55516 2.41985 -0.00612645
thorax -6.30193 0.954165 -3.91836
lowerneck -24.4894 -13.8513 -10.3749
upperneck -2.64454 -16.3998 16.2031
head 5.22385 -7.03954 4.70601
rclavicle 5.66536e-015 -9.54166e-015
rhumerus 67.1675 -34.7117 -24.8712
rradius 38.2557
rwrist 27.9249
rhand -63.0416 -11.3632
rfingers 7.12502
rthumb -35.0424 -37.9094
lclavicle 5.66536e-015 -9.54166e-015
lhumerus -43.9808 17.3996 62.4682
lradius 32.8755
lwrist -7.52189
lhand -13.1558 25.9806
lfingers 7.12502
lthumb 12.9431 55.5592
rfemur -19.3421 -6.33924 17.147
rtibia 34.4165
rfoot -18.7026 -1.21799
rtoes 2.24981
lfemur -6.6244 -2.38905 -9.97435
ltibia 14.1939
lfoot -7.88658 10.0799
ltoes -25.9423
698
root -0.377234 17.8181 1.39042 7.97013 1.9456 1.65796
lowerback 8.80665 1.27332 6.34771
upperback -1.46229 2.41359 0.168926
thorax -6.24007 0.959006 -3.72724
lowerneck -24.6786 -13.8237 -10.1933
upperneck -2.77655 -16.3662 16.0897
head 5.17642 -7.0272 4.64773
rclavicle 5.26779e-015 -2.94201e-014
rhumerus 68.4134 -35.4911 -27.0733
rradius 38.1659
rwrist 25.2738
rhand -62.3214 -12.0952
rfingers 7.12502
rthumb -34.3589 -38.7986
lclavicle 5.26779e-015 -2.94201e-014
lhumerus -43.7215 17.1375 63.2259
lradius 33.3275
lwrist -7.2754
lhand -13.0863 26.5319
lfingers 7.12502
lthumb 13.01 56.1063
rfemur -19.4423 -6.53913 17.0465
rtibia 34.4928
rfoot -18.6421 -1.03274
rtoes 2.52321
lfemur -6.7247 -2.34307 -10.0988
ltibia 14.1987
lfoot -7.77476 10.0681
ltoes -25.3185
699
root -0.384685 17.8228 1.38521 8.0261 1.87588 1.83951
lowerback 8.85515 1.26679 6.3061
upperback -1.41075 2.41007 0.305763
thorax -6.22061 0.963075 -3.5599
lowerneck -24.5619 -13.7742 -10.2216
upperneck -3.10376 -16.2833 16.3229
head 5.07756 -6.99077 4.74904
rclavicle -1.97791e-014 -1.43125e-014
rhumerus 69.4658 -36.101 -29.1682
rradius 38.2281
rwrist 22.4804
rhand -61.8764 -12.2577
rfingers 7.12502
rthumb -33.9363 -39.0555
lclavicle -1.97791e-014 -1.43125e-014
lhumerus -43.5227 16.6976 63.9546
lradius 33.7596
lwrist -7.079
lhand -12.9856 26.1448
lfingers 7.12502
lthumb 13.107 55.7129
rfemur -19.6098 -6.75709 16.8729
rtibia 34.6304
rfoot -18.5432 -0.763134
rtoes 3.11698
lfemur -6.7612 -2.36732 -10.2864
ltibia 14.0953
lfoot -7.69145 10.1151
ltoes -24.4036
